<?xml version="1.0" encoding="UTF-8" standalone="no"?>
<!-- Created with Inkscape (http://www.inkscape.org/) -->

<svg
   xmlns:dc="http://purl.org/dc/elements/1.1/"
   xmlns:cc="http://creativecommons.org/ns#"
   xmlns:rdf="http://www.w3.org/1999/02/22-rdf-syntax-ns#"
   xmlns:svg="http://www.w3.org/2000/svg"
   xmlns="http://www.w3.org/2000/svg"
   xmlns:sodipodi="http://sodipodi.sourceforge.net/DTD/sodipodi-0.dtd"
   xmlns:inkscape="http://www.inkscape.org/namespaces/inkscape"
   width="410.96155"
   height="131.87587"
   id="svg3583"
   version="1.1"
   inkscape:version="0.48.4 r9939"
   sodipodi:docname="New document 3">
  <defs
     id="defs3585" />
  <sodipodi:namedview
     id="base"
     pagecolor="#ffffff"
     bordercolor="#666666"
     borderopacity="1.0"
     inkscape:pageopacity="0.0"
     inkscape:pageshadow="2"
     inkscape:zoom="0.49497475"
     inkscape:cx="247.56589"
     inkscape:cy="-7.567189"
     inkscape:document-units="px"
     inkscape:current-layer="layer1"
     showgrid="false"
     fit-margin-top="0"
     fit-margin-left="0"
     fit-margin-right="0"
     fit-margin-bottom="0"
     inkscape:window-width="1680"
     inkscape:window-height="988"
     inkscape:window-x="-8"
     inkscape:window-y="-8"
     inkscape:window-maximized="1" />
  <metadata
     id="metadata3588">
    <rdf:RDF>
      <cc:Work
         rdf:about="">
        <dc:format>image/svg+xml</dc:format>
        <dc:type
           rdf:resource="http://purl.org/dc/dcmitype/StillImage" />
        <dc:title></dc:title>
      </cc:Work>
    </rdf:RDF>
  </metadata>
  <g
     inkscape:label="Layer 1"
     inkscape:groupmode="layer"
     id="layer1"
     transform="translate(-200.60055,-504.50605)">
    <path
       inkscape:connector-curvature="0"
       style="fill:#009fe0;fill-rule:evenodd;stroke:none"
       d="m 600.94163,545.16727 10.62047,-18.40881 -21.23082,0 10.61035,18.40881 z m -12.83896,-17.1175 -10.61373,18.3987 21.23082,0 -10.61709,-18.3987 z m 0,39.37328 10.61709,-18.40881 -21.23082,0 10.61373,18.40881 z m -12.84234,-17.12424 -10.61035,18.40881 21.23082,0 -10.62047,-18.40881 z m -2.22187,-1.28457 -21.22745,0 10.6171,18.40881 10.61035,-18.40881 z m -10.61035,-20.96447 -10.6171,18.3987 21.22745,0 -10.61035,-18.3987 z m 2.22187,-1.29131 10.61035,18.40881 10.62047,-18.40881 -21.23082,0 z m 10.61035,-20.96784 -10.61035,18.3987 21.23082,0 -10.62047,-18.3987 z m -12.83222,17.1175 10.61035,-18.40207 -21.22745,0 10.6171,18.40207 z m -12.83897,-17.1175 -10.62047,18.3987 21.23082,0 -10.61035,-18.3987 z m 0,39.37665 10.61035,-18.40881 -21.23082,0 10.62047,18.40881 z m -12.83897,-17.05681 -10.58675,18.33801 21.16676,0 -10.58001,-18.33801 12.83897,17.05681"
       id="path3338" />
    <path
       inkscape:connector-curvature="0"
       style="fill:#2c2c2b;fill-rule:evenodd;stroke:none"
       d="m 258.06908,546.38778 0,64.20157 -16.83428,0 0,-7.62313 c -2.43765,3.10522 -5.30012,5.44172 -8.54695,6.99265 -3.24346,1.5543 -6.8915,2.33987 -10.94414,2.33987 -7.05334,0 -12.34334,-1.84762 -15.8599,-5.54287 -3.53341,-3.70536 -5.28326,-9.25161 -5.28326,-16.60839 l 0,-43.7597 17.19167,0 0,38.80011 c 0,4.57523 0.76872,7.81869 2.29942,9.77758 1.53069,1.95551 4.06949,2.92315 7.61976,2.92315 4.00881,0 7.21518,-1.21377 9.59214,-3.63119 2.37696,-2.41405 3.5705,-5.72493 3.5705,-9.89558 l 0,-37.97407 17.19504,0 z m 206.03372,89.99414 0,-89.93345 16.34878,0 0,8.68518 c 2.47811,-3.78628 5.25966,-6.52737 8.30419,-8.26036 3.04116,-1.73637 6.65212,-2.60286 10.78231,-2.60286 7.8996,0 14.33257,3.12545 19.24833,9.35613 4.91913,6.24416 7.37701,14.4472 7.37701,24.58554 0,10.27994 -2.45788,18.62796 -7.37701,25.01373 -4.91576,6.38914 -11.26444,9.59888 -19.02581,9.59888 -4.0931,0 -7.74114,-0.86987 -10.94414,-2.59949 -3.20637,-1.73973 -5.88677,-4.2583 -8.00412,-7.56244 l 0,33.71914 -16.70954,0 z m 44.98695,-57.46179 c 0,-6.4532 -1.22725,-11.38919 -3.6649,-14.79448 -2.44102,-3.4053 -5.96769,-5.1012 -10.62384,-5.1012 -4.555,0 -8.04121,1.6959 -10.41817,5.08097 -2.38034,3.38506 -3.5705,8.32105 -3.5705,14.81471 0,6.06547 1.25085,10.76207 3.74919,14.06959 2.49834,3.30415 6.02838,4.95622 10.60361,4.95622 4.33248,0 7.71754,-1.69253 10.19902,-5.0776 2.47811,-3.3918 3.72559,-8.04458 3.72559,-13.94821 z m -92.79929,12.23208 c 0.39785,2.55566 1.5307,4.51454 3.40529,5.86655 2.20164,1.58464 5.50242,2.39719 9.91581,2.39719 3.34798,0 5.94072,-0.5698 7.7816,-1.68916 1.8274,-1.116 2.7411,-2.70401 2.7411,-4.76067 0,-2.89619 -3.42553,-5.10794 -10.27994,-6.54423 -2.79841,-0.59677 -5.01691,-1.11599 -6.66898,-1.53744 -8.36489,-2.13421 -14.14714,-4.64266 -17.39734,-7.55908 -3.24009,-2.9063 -4.87867,-6.85441 -4.87867,-11.81063 0,-6.56783 2.3837,-11.76344 7.11402,-15.60029 4.74381,-3.84023 11.17004,-5.7654 19.27194,-5.7654 8.58404,0 15.34742,1.91169 20.23621,5.72494 4.90227,3.82337 7.49838,9.19429 7.82206,16.12625 l -16.70954,0 c -0.12138,-2.72086 -1.14971,-4.82135 -3.10522,-6.32845 -1.93529,-1.4936 -4.65615,-2.23872 -8.1255,-2.23872 -3.26369,0 -5.68111,0.4855 -7.2725,1.47338 -1.59475,0.98787 -2.40056,2.45788 -2.40056,4.43362 0,2.55903 4.26842,4.84159 12.81874,6.79036 1.95214,0.44505 3.50981,0.79906 4.65614,1.06879 8.54695,2.00609 14.38652,4.42351 17.51872,7.25563 3.11534,2.82538 4.69661,6.81396 4.69661,11.97247 0,7.29947 -2.55903,12.84571 -7.70406,16.66571 -5.13154,3.82 -12.61307,5.73168 -22.41087,5.73168 -8.87062,0 -15.80595,-1.99935 -20.80263,-5.97106 -4.82136,-3.83012 -7.32307,-9.06955 -7.49165,-15.70144 l 17.26922,0 z m -66.17057,-19.36971 25.27334,0 c -0.16184,-4.33248 -1.29806,-7.62988 -3.44575,-9.89558 -2.14433,-2.2657 -5.23943,-3.38843 -9.24824,-3.38843 -3.73233,0 -6.67909,1.1497 -8.83353,3.42889 -2.13758,2.27244 -3.38506,5.5631 -3.74582,9.85512 z m 25.03396,19.36971 17.13435,0 c -1.73299,6.7735 -5.22931,12.07025 -10.4856,15.90373 -5.26303,3.8436 -11.66903,5.76877 -19.22811,5.76877 -9.28869,0 -16.65896,-3.11871 -22.09057,-9.3595 -5.43161,-6.23405 -8.14236,-14.68996 -8.14236,-25.37449 0,-10.49572 2.67366,-18.7898 8.02098,-24.8519 5.35744,-6.06883 12.6805,-9.08977 21.97257,-9.08977 9.85512,0 17.4614,2.98048 22.81884,8.95154 5.34395,5.96095 8.02098,14.45058 8.02098,25.47564 0,1.234 0,2.13758 -0.0189,2.76132 -0.0189,0.60351 -0.0809,1.19017 -0.16184,1.73636 l -42.87297,0 c 0.24275,5.03377 1.47,8.82342 3.6885,11.38245 2.2185,2.5624 5.4215,3.83348 9.59551,3.83348 2.96024,0 5.38441,-0.58665 7.25563,-1.73636 1.89483,-1.1632 3.38844,-2.96025 4.49432,-5.40127 z m -106.98689,19.43714 0,-64.20157 16.83091,0 0,7.61976 c 2.42079,-3.10185 5.2428,-5.44172 8.50649,-6.99265 3.26706,-1.55429 6.91511,-2.33987 10.92391,-2.33987 7.0938,0 12.40066,1.83414 15.92733,5.52264 3.52667,3.68851 5.27989,9.21115 5.27989,16.63199 l 0,43.7597 -17.19504,0 0,-38.80348 c 0,-4.61569 -0.78558,-7.90298 -2.3365,-9.85512 -1.5543,-1.97574 -4.07287,-2.96362 -7.57931,-2.96362 -4.05264,0 -7.25901,1.20703 -9.61574,3.62782 -2.35673,2.42079 -3.5469,5.72494 -3.5469,9.89221 l 0,38.10219 -17.19504,0 z"
       id="path3340" />
  </g>
</svg>
